<svg width="63" height="55" viewBox="0 0 63 55" fill="none" xmlns="http://www.w3.org/2000/svg">
<path d="M21.0923 4.53186H14.6997V24.7927H21.0923V4.53186Z" fill="#F5F5F5"/>
<path d="M21.0903 4.53186H17.894V24.7372H21.0903V4.53186Z" fill="#EBEBEB"/>
<path d="M17.6861 2.5415H15.4287V4.53043H17.6861V2.5415Z" fill="#F5F5F5"/>
<path d="M17.6862 2.5415H17.1479V4.53043H17.6862V2.5415Z" fill="#EBEBEB"/>
<path d="M14.1655 4.53178V4.41541H21.2789V4.53178" fill="#E0E0E0"/>
<path d="M16.5023 5.39941H15.9614V6.54067H16.5023V5.39941Z" fill="#FAFAFA"/>
<path d="M17.896 6.98759C17.896 6.99949 17.1806 7.01007 16.2972 7.01007C15.4138 7.01007 14.6997 6.99949 14.6997 6.98759C14.6997 6.97569 15.4151 6.96643 16.2972 6.96643C17.1793 6.96643 17.896 6.97569 17.896 6.98759Z" fill="#E0E0E0"/>
<path d="M19.7259 5.39941H19.1851V6.54067H19.7259V5.39941Z" fill="#E0E0E0"/>
<path d="M21.1196 6.98759C21.1196 6.99949 20.4042 7.01007 19.5222 7.01007C18.6401 7.01007 17.9233 6.99949 17.9233 6.98759C17.9233 6.97569 18.6388 6.96643 19.5222 6.96643C20.4055 6.96643 21.1196 6.97569 21.1196 6.98759Z" fill="#E0E0E0"/>
<path d="M19.7259 7.66467H19.1851V8.80593H19.7259V7.66467Z" fill="#E0E0E0"/>
<path d="M21.1196 9.25297C21.1196 9.26487 20.4042 9.27545 19.5222 9.27545C18.6401 9.27545 17.9233 9.26487 17.9233 9.25297C17.9233 9.24107 18.6388 9.23181 19.5222 9.23181C20.4055 9.23181 21.1196 9.24107 21.1196 9.25297Z" fill="#E0E0E0"/>
<path d="M19.7259 9.99731H19.1851V11.1386H19.7259V9.99731Z" fill="#E0E0E0"/>
<path d="M21.1196 11.587C21.1196 11.5989 20.4042 11.6081 19.5222 11.6081C18.6401 11.6081 17.9233 11.5989 17.9233 11.587C17.9233 11.5751 18.6388 11.5658 19.5222 11.5658C20.4055 11.5658 21.1196 11.5751 21.1196 11.587Z" fill="#E0E0E0"/>
<path d="M19.7259 12.3315H19.1851V13.4728H19.7259V12.3315Z" fill="#E0E0E0"/>
<path d="M21.1196 13.9212C21.1196 13.9331 20.4042 13.9423 19.5222 13.9423C18.6401 13.9423 17.9233 13.9331 17.9233 13.9212C17.9233 13.9093 18.6388 13.8987 19.5222 13.8987C20.4055 13.8987 21.1196 13.9093 21.1196 13.9212Z" fill="#E0E0E0"/>
<path d="M19.7259 14.5994H19.1851V15.7406H19.7259V14.5994Z" fill="#E0E0E0"/>
<path d="M21.1196 16.189C21.1196 16.2009 20.4042 16.2115 19.5222 16.2115C18.6401 16.2115 17.9233 16.2009 17.9233 16.189C17.9233 16.1771 18.6388 16.1678 19.5222 16.1678C20.4055 16.1678 21.1196 16.1758 21.1196 16.189Z" fill="#E0E0E0"/>
<path d="M19.7259 16.8754H19.1851V18.0166H19.7259V16.8754Z" fill="#E0E0E0"/>
<path d="M19.7259 19.1818H19.1851V20.323H19.7259V19.1818Z" fill="#E0E0E0"/>
<path d="M21.1196 18.4635C21.1196 18.4754 20.4042 18.486 19.5222 18.486C18.6401 18.486 17.9233 18.4754 17.9233 18.4635C17.9233 18.4516 18.6388 18.4424 19.5222 18.4424C20.4055 18.4424 21.1196 18.4516 21.1196 18.4635Z" fill="#E0E0E0"/>
<path d="M16.5023 7.6991H15.9614V8.84035H16.5023V7.6991Z" fill="#FAFAFA"/>
<path d="M17.8952 9.28752C17.8952 9.29942 17.1798 9.31 16.2964 9.31C15.413 9.31 14.6963 9.29942 14.6963 9.28752C14.6963 9.27561 15.4117 9.26636 16.2938 9.26636C17.1758 9.26636 17.8952 9.27561 17.8952 9.28752Z" fill="#E0E0E0"/>
<path d="M16.5023 9.9989H15.9614V11.1402H16.5023V9.9989Z" fill="#FAFAFA"/>
<path d="M17.8952 11.5883C17.8952 11.6002 17.1798 11.6094 16.2964 11.6094C15.413 11.6094 14.6963 11.6002 14.6963 11.5883C14.6963 11.5764 15.4117 11.5658 16.2938 11.5658C17.1758 11.5658 17.8952 11.5764 17.8952 11.5883Z" fill="#E0E0E0"/>
<path d="M16.5023 12.2986H15.9614V13.4398H16.5023V12.2986Z" fill="#FAFAFA"/>
<path d="M17.8952 13.8881C17.8952 13.9 17.1798 13.9092 16.2964 13.9092C15.413 13.9092 14.6963 13.9 14.6963 13.8881C14.6963 13.8762 15.4117 13.8656 16.2938 13.8656C17.1758 13.8656 17.8952 13.8762 17.8952 13.8881Z" fill="#E0E0E0"/>
<path d="M16.5023 14.5994H15.9614V15.7406H16.5023V14.5994Z" fill="#FAFAFA"/>
<path d="M17.8952 16.189C17.8952 16.2009 17.1798 16.2115 16.2964 16.2115C15.413 16.2115 14.6963 16.1996 14.6963 16.189C14.6963 16.1784 15.4117 16.1678 16.2938 16.1678C17.1758 16.1678 17.8952 16.1758 17.8952 16.189Z" fill="#E0E0E0"/>
<path d="M16.5023 16.8993H15.9614V18.0405H16.5023V16.8993Z" fill="#FAFAFA"/>
<path d="M17.896 18.4875C17.896 18.4994 17.1806 18.5099 16.2972 18.5099C15.4138 18.5099 14.6997 18.4994 14.6997 18.4875C14.6997 18.4756 15.4151 18.4663 16.2972 18.4663C17.1793 18.4663 17.896 18.4756 17.896 18.4875Z" fill="#E0E0E0"/>
<path d="M16.5023 19.1989H15.9614V20.3401H16.5023V19.1989Z" fill="#FAFAFA"/>
<path d="M44.5044 8.82715H38.1118V29.088H44.5044V8.82715Z" fill="#F5F5F5"/>
<path d="M44.5049 8.82715H41.3086V29.0325H44.5049V8.82715Z" fill="#EBEBEB"/>
<path d="M41.1006 6.83813H38.8433V8.82706H41.1006V6.83813Z" fill="#F5F5F5"/>
<path d="M41.0983 6.83813H40.5601V8.82706H41.0983V6.83813Z" fill="#EBEBEB"/>
<path d="M37.5796 8.82719V8.71082H44.6916V8.82719" fill="#E0E0E0"/>
<path d="M39.9149 9.69458H39.374V10.8358H39.9149V9.69458Z" fill="#FAFAFA"/>
<path d="M41.3094 11.2842C41.3094 11.2961 40.594 11.3054 39.7106 11.3054C38.8272 11.3054 38.1118 11.2961 38.1118 11.2842C38.1118 11.2723 38.8286 11.2617 39.7106 11.2617C40.5927 11.2617 41.3094 11.2723 41.3094 11.2842Z" fill="#E0E0E0"/>
<path d="M43.1385 9.69458H42.5977V10.8358H43.1385V9.69458Z" fill="#E0E0E0"/>
<path d="M44.5322 11.2842C44.5322 11.2961 43.8168 11.3054 42.9334 11.3054C42.05 11.3054 41.3359 11.2961 41.3359 11.2842C41.3359 11.2723 42.0514 11.2617 42.9334 11.2617C43.8155 11.2617 44.5322 11.2723 44.5322 11.2842Z" fill="#E0E0E0"/>
<path d="M43.1385 11.9598H42.5977V13.1011H43.1385V11.9598Z" fill="#E0E0E0"/>
<path d="M44.5322 13.5441C44.5322 13.556 43.8168 13.5652 42.9334 13.5652C42.05 13.5652 41.3359 13.556 41.3359 13.5441C41.3359 13.5322 42.0514 13.5216 42.9334 13.5216C43.8155 13.5216 44.5322 13.5441 44.5322 13.5441Z" fill="#E0E0E0"/>
<path d="M43.1385 14.2939H42.5977V15.4352H43.1385V14.2939Z" fill="#E0E0E0"/>
<path d="M44.5322 15.8837C44.5322 15.8956 43.8168 15.9048 42.9334 15.9048C42.05 15.9048 41.3359 15.8956 41.3359 15.8837C41.3359 15.8718 42.0514 15.8612 42.9334 15.8612C43.8155 15.8612 44.5322 15.8718 44.5322 15.8837Z" fill="#E0E0E0"/>
<path d="M43.1385 16.6282H42.5977V17.7694H43.1385V16.6282Z" fill="#E0E0E0"/>
<path d="M44.5322 18.2163C44.5322 18.2296 43.8168 18.2388 42.9334 18.2388C42.05 18.2388 41.3359 18.2296 41.3359 18.2163C41.3359 18.2031 42.0514 18.1952 42.9334 18.1952C43.8155 18.1952 44.5322 18.2044 44.5322 18.2163Z" fill="#E0E0E0"/>
<path d="M43.1385 18.8948H42.5977V20.036H43.1385V18.8948Z" fill="#E0E0E0"/>
<path d="M44.5322 20.4844C44.5322 20.4963 43.8168 20.5056 42.9334 20.5056C42.05 20.5056 41.3359 20.4963 41.3359 20.4844C41.3359 20.4725 42.0514 20.4619 42.9334 20.4619C43.8155 20.4619 44.5322 20.4725 44.5322 20.4844Z" fill="#E0E0E0"/>
<path d="M43.1385 21.1708H42.5977V22.312H43.1385V21.1708Z" fill="#E0E0E0"/>
<path d="M43.1385 23.4768H42.5977V24.6181H43.1385V23.4768Z" fill="#E0E0E0"/>
<path d="M44.5322 22.7603C44.5322 22.7722 43.8168 22.7815 42.9334 22.7815C42.05 22.7815 41.3359 22.7722 41.3359 22.7603C41.3359 22.7484 42.0514 22.7391 42.9334 22.7391C43.8155 22.7391 44.5322 22.7484 44.5322 22.7603Z" fill="#E0E0E0"/>
<path d="M39.9149 11.9943H39.374V13.1355H39.9149V11.9943Z" fill="#FAFAFA"/>
<path d="M41.3094 13.5837C41.3094 13.5956 40.594 13.6048 39.7106 13.6048C38.8272 13.6048 38.1118 13.5956 38.1118 13.5837C38.1118 13.5718 38.8286 13.5625 39.7106 13.5625C40.5927 13.5625 41.3094 13.5718 41.3094 13.5837Z" fill="#E0E0E0"/>
<path d="M39.9149 14.2953H39.374V15.4365H39.9149V14.2953Z" fill="#FAFAFA"/>
<path d="M41.3094 15.8836C41.3094 15.8955 40.594 15.9061 39.7106 15.9061C38.8272 15.9061 38.1118 15.8955 38.1118 15.8836C38.1118 15.8717 38.8286 15.8624 39.7106 15.8624C40.5927 15.8624 41.3094 15.8717 41.3094 15.8836Z" fill="#E0E0E0"/>
<path d="M39.9149 16.595H39.374V17.7362H39.9149V16.595Z" fill="#FAFAFA"/>
<path d="M41.3094 18.1834C41.3094 18.1966 40.594 18.2059 39.7106 18.2059C38.8272 18.2059 38.1118 18.1966 38.1118 18.1834C38.1118 18.1702 38.8286 18.1622 39.7106 18.1622C40.5927 18.1622 41.3094 18.1728 41.3094 18.1834Z" fill="#E0E0E0"/>
<path d="M39.9149 18.8948H39.374V20.036H39.9149V18.8948Z" fill="#FAFAFA"/>
<path d="M41.3094 20.4844C41.3094 20.4963 40.594 20.5056 39.7106 20.5056C38.8272 20.5056 38.1118 20.4963 38.1118 20.4844C38.1118 20.4725 38.8286 20.4619 39.7106 20.4619C40.5927 20.4619 41.3094 20.4725 41.3094 20.4844Z" fill="#E0E0E0"/>
<path d="M39.9149 21.1958H39.374V22.3371H39.9149V21.1958Z" fill="#FAFAFA"/>
<path d="M41.3094 22.7841C41.3094 22.796 40.594 22.8053 39.7106 22.8053C38.8272 22.8053 38.1118 22.796 38.1118 22.7841C38.1118 22.7722 38.8286 22.7629 39.7106 22.7629C40.5927 22.7629 41.3094 22.7722 41.3094 22.7841Z" fill="#E0E0E0"/>
<path d="M39.9149 23.4955H39.374V24.6367H39.9149V23.4955Z" fill="#FAFAFA"/>
<path d="M52.4872 16.689H42.1353V30.3417H52.4872V16.689Z" fill="#EBEBEB"/>
<path d="M52.4861 16.689H47.6328V30.3417H52.4861V16.689Z" fill="#E0E0E0"/>
<path d="M45.2357 18.5376H44.3047V20.7989H45.2357V18.5376Z" fill="#F5F5F5"/>
<path d="M45.2357 27.3875H44.3047V29.6488H45.2357V27.3875Z" fill="#F5F5F5"/>
<path d="M47.6326 21.6863C47.6326 21.7114 46.4027 21.7313 44.8846 21.7313C43.3664 21.7313 42.1353 21.7114 42.1353 21.6863C42.1353 21.6612 43.3651 21.64 44.8846 21.64C46.404 21.64 47.6326 21.6599 47.6326 21.6863Z" fill="#F5F5F5"/>
<path d="M45.2357 22.9957H44.3047V25.2571H45.2357V22.9957Z" fill="#F5F5F5"/>
<path d="M47.6326 26.1443C47.6326 26.1694 46.4027 26.1906 44.8846 26.1906C43.3664 26.1906 42.1353 26.1694 42.1353 26.1443C42.1353 26.1192 43.3651 26.098 44.8846 26.098C46.404 26.098 47.6326 26.1192 47.6326 26.1443Z" fill="#F5F5F5"/>
<path d="M49.5946 18.5376H48.6636V20.7989H49.5946V18.5376Z" fill="#F5F5F5"/>
<path d="M51.6146 18.5376H50.6836V20.7989H51.6146V18.5376Z" fill="#F5F5F5"/>
<path d="M49.5946 22.8275H48.6636V25.0889H49.5946V22.8275Z" fill="#F5F5F5"/>
<path d="M51.6146 22.8275H50.6836V25.0889H51.6146V22.8275Z" fill="#F5F5F5"/>
<path d="M49.5946 27.1189H48.6636V29.3802H49.5946V27.1189Z" fill="#F5F5F5"/>
<path d="M51.6146 27.1189H50.6836V29.3802H51.6146V27.1189Z" fill="#F5F5F5"/>
<path d="M53.2649 16.213H41.3564V16.705H53.2649V16.213Z" fill="#E0E0E0"/>
<path d="M52.5574 16.7523C52.5574 16.7775 50.2445 16.7973 47.3907 16.7973C44.5369 16.7973 42.2227 16.7775 42.2227 16.7523C42.2227 16.7272 44.5369 16.7061 47.3907 16.7061C50.2445 16.7061 52.5574 16.7259 52.5574 16.7523Z" fill="#EBEBEB"/>
<path d="M18.7192 30.6141H9.3115L9.27051 15.7461H18.6782L18.7192 30.6141Z" fill="#EBEBEB"/>
<path d="M18.6795 15.7461H13.9756V30.6141H18.6795V15.7461Z" fill="#E0E0E0"/>
<path d="M13.6676 12.8195H10.3457V15.746H13.6676V12.8195Z" fill="#EBEBEB"/>
<path d="M13.6681 12.8195H12.876V15.746H13.6681V12.8195Z" fill="#E0E0E0"/>
<path d="M18.9553 15.5754H8.48828V15.746H18.9553V15.5754Z" fill="#E0E0E0"/>
<path d="M11.9245 17.0234H11.1284V18.7029H11.9245V17.0234Z" fill="white"/>
<path d="M13.9752 19.3628C13.9752 19.38 12.9172 19.3945 11.6226 19.3945C10.3279 19.3945 9.27393 19.3787 9.27393 19.3628C9.27393 19.3469 10.3319 19.3311 11.6252 19.3311C12.9185 19.3311 13.9752 19.343 13.9752 19.3628Z" fill="#E0E0E0"/>
<path d="M16.6687 17.0234H15.8726V18.7029H16.6687V17.0234Z" fill="#F5F5F5"/>
<path d="M18.7205 19.3628C18.7205 19.38 17.6625 19.3945 16.3679 19.3945C15.0732 19.3945 14.0166 19.38 14.0166 19.3628C14.0166 19.3456 15.0745 19.3311 16.3679 19.3311C17.6612 19.3311 18.7205 19.343 18.7205 19.3628Z" fill="#EBEBEB"/>
<path d="M16.6687 20.3575H15.8726V22.037H16.6687V20.3575Z" fill="#F5F5F5"/>
<path d="M18.7205 22.6954C18.7205 22.7126 17.6625 22.7272 16.3679 22.7272C15.0732 22.7272 14.0166 22.7126 14.0166 22.6954C14.0166 22.6782 15.0745 22.6624 16.3679 22.6624C17.6612 22.6624 18.7205 22.6769 18.7205 22.6954Z" fill="#EBEBEB"/>
<path d="M16.6687 23.7916H15.8726V25.4711H16.6687V23.7916Z" fill="#F5F5F5"/>
<path d="M18.7205 26.1299C18.7205 26.1471 17.6625 26.1616 16.3679 26.1616C15.0732 26.1616 14.0166 26.1471 14.0166 26.1299C14.0166 26.1127 15.0745 26.0968 16.3679 26.0968C17.6612 26.0968 18.7205 26.1074 18.7205 26.1299Z" fill="#EBEBEB"/>
<path d="M16.6687 27.2247H15.8726V28.9042H16.6687V27.2247Z" fill="#F5F5F5"/>
<path d="M18.7205 29.5642C18.7205 29.5814 17.6625 29.5959 16.3679 29.5959C15.0732 29.5959 14.0166 29.5814 14.0166 29.5642C14.0166 29.547 15.0745 29.5311 16.3679 29.5311C17.6612 29.5311 18.7205 29.5457 18.7205 29.5642Z" fill="#EBEBEB"/>
<path d="M11.9245 20.4076H11.1284V22.0871H11.9245V20.4076Z" fill="white"/>
<path d="M13.9752 22.7456C13.9752 22.7641 12.9172 22.7773 11.6226 22.7773C10.3279 22.7773 9.27393 22.7641 9.27393 22.7456C9.27393 22.7271 10.3319 22.7139 11.6252 22.7139C12.9185 22.7139 13.9752 22.7284 13.9752 22.7456Z" fill="#E0E0E0"/>
<path d="M11.9245 23.7916H11.1284V25.4711H11.9245V23.7916Z" fill="white"/>
<path d="M13.9752 26.1298C13.9752 26.1483 12.9172 26.1628 11.6226 26.1628C10.3279 26.1628 9.27393 26.1483 9.27393 26.1298C9.27393 26.1112 10.3319 26.098 11.6252 26.098C12.9185 26.098 13.9752 26.1073 13.9752 26.1298Z" fill="#E0E0E0"/>
<path d="M11.9245 27.177H11.1284V28.8565H11.9245V27.177Z" fill="white"/>
<path d="M13.9752 29.5151C13.9752 29.5323 12.9172 29.5469 11.6226 29.5469C10.3279 29.5469 9.27393 29.5323 9.27393 29.5151C9.27393 29.4979 10.3319 29.4834 11.6252 29.4834C12.9185 29.4834 13.9752 29.4966 13.9752 29.5151Z" fill="#E0E0E0"/>
<path d="M55.9777 12.7415C56.028 12.3792 55.5175 12.0803 55.134 12.0512C54.9508 12.0586 54.7673 12.043 54.5879 12.0049C54.2136 11.8727 54.0589 11.3887 53.6979 11.2353C53.4241 11.1189 53.1094 11.2221 52.8436 11.3556C52.5778 11.4892 52.3146 11.6571 52.0197 11.6756C51.7552 11.6928 51.4815 11.5963 51.2567 11.7233C51.0887 11.8171 51.0001 12.0102 50.8454 12.12C50.684 12.2188 50.4977 12.2693 50.3085 12.2654C50.1198 12.2602 49.9318 12.2907 49.7544 12.3554C49.6662 12.3894 49.5915 12.4511 49.5414 12.5312C49.4914 12.6113 49.4686 12.7056 49.4767 12.7997L55.9777 12.7415Z" fill="#F5F5F5"/>
<path d="M40.0611 2.43586C40.1391 1.87118 39.3404 1.40569 38.7387 1.35676C38.453 1.33428 38.1555 1.37792 37.8857 1.28402C37.2985 1.07905 37.0632 0.319974 36.4905 0.0779703C36.0621 -0.10188 35.5648 0.058134 35.1536 0.267077C34.7423 0.476021 34.3284 0.739184 33.8642 0.7696C33.4675 0.794726 33.0218 0.645292 32.674 0.842333C32.4095 0.989122 32.2773 1.29328 32.0313 1.47181C31.7853 1.65034 31.4838 1.6834 31.1903 1.69927C30.8967 1.71513 30.5912 1.7191 30.3227 1.84076C30.0543 1.96243 29.8334 2.24807 29.889 2.53636L40.0611 2.43586Z" fill="#EBEBEB"/>
<path d="M12.8716 10.2647C12.9338 9.81371 12.2977 9.4421 11.8137 9.40375C11.5862 9.38524 11.3495 9.42095 11.1327 9.34557C10.6645 9.18159 10.4714 8.57724 10.0218 8.38416C9.67931 8.24002 9.28654 8.36829 8.95594 8.53492C8.62533 8.70155 8.29472 8.91181 7.92709 8.93165C7.60574 8.95148 7.25662 8.83247 6.97494 8.98983C6.76468 9.10621 6.65492 9.34821 6.46184 9.49103C6.26089 9.61572 6.02777 9.67871 5.79137 9.67221C5.55578 9.667 5.32126 9.70556 5.09974 9.78593C4.88683 9.88379 4.70963 10.1099 4.75459 10.34L12.8716 10.2647Z" fill="#F5F5F5"/>
<path d="M8.19461 20.2104C7.68083 20.2228 7.18017 20.3751 6.74655 20.651C6.31293 20.9268 5.96278 21.3157 5.73381 21.7759C5.50485 22.236 5.40575 22.7498 5.44719 23.2621C5.48862 23.7743 5.66903 24.2656 5.96897 24.6829L5.99541 24.7212L7.99625 27.4415C8.03708 27.4969 8.09063 27.5417 8.15239 27.5721C8.21415 27.6025 8.2823 27.6176 8.35112 27.6162C8.41994 27.6147 8.48741 27.5968 8.54785 27.5639C8.60829 27.5309 8.65994 27.484 8.69845 27.4269L10.5062 24.7384C10.8474 24.2174 11.0828 23.6712 11.0828 23.0285C11.082 22.6527 11.0062 22.2809 10.8599 21.9347C10.7136 21.5886 10.4997 21.2751 10.2308 21.0127C9.96181 20.7502 9.64318 20.5441 9.29354 20.4063C8.94391 20.2686 8.57031 20.202 8.19461 20.2104ZM8.26205 25.0889C7.842 25.0889 7.43138 24.9643 7.08212 24.7309C6.73286 24.4976 6.46065 24.1659 6.2999 23.7778C6.13916 23.3897 6.0971 22.9627 6.17904 22.5507C6.26099 22.1387 6.46327 21.7603 6.76029 21.4633C7.05731 21.1663 7.43574 20.964 7.84772 20.882C8.2597 20.8001 8.68672 20.8421 9.0748 21.0029C9.46288 21.1636 9.79457 21.4359 10.0279 21.7851C10.2613 22.1344 10.3859 22.545 10.3859 22.965C10.3859 23.5283 10.1621 24.0685 9.76382 24.4668C9.36553 24.8651 8.82532 25.0889 8.26205 25.0889Z" fill="#8637B9"/>
<g opacity="0.3">
<path d="M8.19314 20.2107C7.67937 20.2231 7.17871 20.3754 6.74508 20.6512C6.31146 20.9271 5.96131 21.316 5.73235 21.7761C5.50338 22.2362 5.40428 22.7501 5.44572 23.2623C5.48716 23.7746 5.66756 24.2658 5.9675 24.6831L5.99395 24.7215L7.99478 27.4417C8.03562 27.4971 8.08917 27.5419 8.15092 27.5723C8.21268 27.6027 8.28083 27.6178 8.34965 27.6164C8.41847 27.615 8.48594 27.597 8.54639 27.5641C8.60683 27.5312 8.65848 27.4842 8.69699 27.4272L10.5047 24.7387C10.8459 24.2176 11.0813 23.6715 11.0813 23.0288C11.0805 22.653 11.0048 22.2811 10.8585 21.935C10.7122 21.5888 10.4983 21.2754 10.2293 21.0129C9.96034 20.7505 9.64171 20.5443 9.29208 20.4066C8.94245 20.2688 8.56884 20.2022 8.19314 20.2107ZM8.26059 25.0891C7.84054 25.0891 7.42992 24.9645 7.08066 24.7312C6.7314 24.4978 6.45918 24.1661 6.29844 23.778C6.13769 23.39 6.09563 22.9629 6.17758 22.551C6.25953 22.139 6.4618 21.7605 6.75882 21.4635C7.05584 21.1665 7.43427 20.9642 7.84625 20.8823C8.25823 20.8003 8.68526 20.8424 9.07334 21.0031C9.46141 21.1639 9.79311 21.4361 10.0265 21.7854C10.2598 22.1346 10.3844 22.5452 10.3844 22.9653C10.3844 23.5286 10.1606 24.0688 9.76235 24.4671C9.36406 24.8653 8.82386 25.0891 8.26059 25.0891Z" fill="black"/>
</g>
<path d="M8.02694 20.2105C7.30223 20.2298 6.61249 20.5262 6.09961 21.0386C5.58673 21.551 5.28972 22.2404 5.26968 22.9651C5.25221 23.5807 5.43812 24.1849 5.79865 24.6843L5.82642 24.7226L7.82593 27.4428C7.86652 27.4994 7.92023 27.5452 7.98246 27.5765C8.04468 27.6077 8.11356 27.6233 8.18315 27.622C8.25275 27.6207 8.321 27.6025 8.38201 27.569C8.44303 27.5355 8.49499 27.4876 8.53343 27.4296L10.3412 24.7411C10.6837 24.2201 10.9178 23.6739 10.9178 23.0312C10.9173 22.655 10.8418 22.2826 10.6954 21.936C10.5491 21.5894 10.3351 21.2755 10.0658 21.0127C9.79649 20.7499 9.47742 20.5436 9.1273 20.4059C8.77719 20.2681 8.40308 20.2017 8.02694 20.2105ZM8.09306 24.7067C7.77507 24.7065 7.4643 24.6119 7.20003 24.4351C6.93576 24.2582 6.72985 24.007 6.60834 23.7131C6.48684 23.4193 6.45518 23.096 6.51738 22.7841C6.57957 22.4723 6.73283 22.1859 6.95778 21.9611C7.18272 21.7364 7.46925 21.5833 7.78115 21.5214C8.09305 21.4595 8.41631 21.4914 8.71007 21.6131C9.00383 21.7349 9.2549 21.941 9.43154 22.2054C9.60818 22.4698 9.70246 22.7807 9.70246 23.0987C9.70228 23.3098 9.66052 23.5189 9.57954 23.7139C9.49857 23.909 9.37997 24.0862 9.23053 24.2354C9.08108 24.3846 8.90371 24.5029 8.70855 24.5835C8.51338 24.6642 8.30424 24.7056 8.09306 24.7054V24.7067Z" fill="#8637B9"/>
<path d="M52.4991 17.5327C52.1071 17.5413 51.7249 17.6568 51.3937 17.8668C51.0625 18.0768 50.795 18.3732 50.6199 18.7241C50.4449 19.0749 50.369 19.467 50.4005 19.8578C50.432 20.2487 50.5696 20.6235 50.7985 20.9419L50.8197 20.971L52.3444 23.0432C52.3755 23.0844 52.416 23.1177 52.4624 23.1402C52.5088 23.1628 52.56 23.174 52.6116 23.173C52.6632 23.1719 52.7138 23.1587 52.7594 23.1343C52.8049 23.1099 52.8439 23.0751 52.8734 23.0327L54.2513 20.9842C54.5255 20.6041 54.679 20.1502 54.6917 19.6816C54.6911 19.3959 54.6336 19.1132 54.5226 18.8499C54.4116 18.5866 54.2494 18.3481 54.0454 18.1481C53.8413 17.9481 53.5995 17.7907 53.3341 17.685C53.0686 17.5794 52.7848 17.5276 52.4991 17.5327ZM52.5507 21.2514C52.2308 21.2514 51.9181 21.1566 51.652 20.9789C51.3859 20.8013 51.1784 20.5488 51.0558 20.2533C50.9331 19.9579 50.9008 19.6327 50.9628 19.3189C51.0248 19.005 51.1784 18.7166 51.4043 18.49C51.6301 18.2634 51.9181 18.1089 52.2317 18.0458C52.5453 17.9828 52.8706 18.0141 53.1665 18.1358C53.4623 18.2575 53.7155 18.4641 53.894 18.7296C54.0725 18.9951 54.1683 19.3075 54.1694 19.6274C54.1701 19.8404 54.1287 20.0515 54.0477 20.2485C53.9666 20.4455 53.8475 20.6245 53.6971 20.7754C53.5468 20.9263 53.3681 21.046 53.1714 21.1276C52.9746 21.2093 52.7637 21.2514 52.5507 21.2514Z" fill="#8637B9"/>
<g opacity="0.3">
<path d="M52.4996 17.5329C52.1076 17.5416 51.7254 17.6571 51.3942 17.867C51.063 18.077 50.7955 18.3734 50.6204 18.7243C50.4454 19.0752 50.3695 19.4672 50.401 19.8581C50.4325 20.2489 50.5701 20.6238 50.799 20.9421L50.8201 20.9712L52.3449 23.0435C52.376 23.0847 52.4165 23.1179 52.4629 23.1405C52.5093 23.163 52.5605 23.1742 52.6121 23.1732C52.6637 23.1722 52.7143 23.1589 52.7598 23.1345C52.8053 23.1101 52.8444 23.0753 52.8739 23.0329L54.2518 20.9845C54.526 20.6043 54.6795 20.1504 54.6922 19.6819C54.6915 19.3962 54.6341 19.1134 54.5231 18.8502C54.4121 18.5869 54.2499 18.3483 54.0459 18.1483C53.8418 17.9483 53.6 17.7909 53.3346 17.6853C53.0691 17.5796 52.7853 17.5278 52.4996 17.5329ZM52.5512 21.2516C52.2313 21.2516 51.9185 21.1568 51.6525 20.9792C51.3864 20.8015 51.1789 20.5491 51.0563 20.2536C50.9336 19.9581 50.9012 19.6329 50.9633 19.3191C51.0253 19.0053 51.1789 18.7168 51.4048 18.4903C51.6306 18.2637 51.9185 18.1091 52.2322 18.046C52.5458 17.983 52.8711 18.0143 53.167 18.136C53.4628 18.2577 53.716 18.4643 53.8945 18.7298C54.073 18.9953 54.1688 19.3077 54.1698 19.6277C54.1705 19.8407 54.1292 20.0517 54.0482 20.2487C53.9671 20.4457 53.848 20.6248 53.6976 20.7756C53.5473 20.9265 53.3686 21.0462 53.1718 21.1279C52.9751 21.2096 52.7642 21.2516 52.5512 21.2516Z" fill="black"/>
</g>
<path d="M52.3717 17.5326C51.98 17.5419 51.5983 17.658 51.2677 17.8682C50.9371 18.0784 50.6701 18.3749 50.4955 18.7257C50.321 19.0764 50.2454 19.4682 50.277 19.8587C50.3087 20.2492 50.4463 20.6237 50.675 20.9418L50.6949 20.9709L52.2183 23.0432C52.2494 23.0854 52.2902 23.1196 52.3373 23.1428C52.3844 23.166 52.4363 23.1776 52.4888 23.1765C52.5413 23.1755 52.5928 23.1619 52.6389 23.1368C52.685 23.1118 52.7244 23.076 52.7539 23.0326L54.1318 20.9841C54.4056 20.6039 54.5586 20.15 54.5709 19.6815C54.5704 19.3952 54.5129 19.1119 54.4015 18.8481C54.2902 18.5842 54.1274 18.3453 53.9226 18.1452C53.7178 17.9451 53.4752 17.7878 53.2089 17.6826C52.9426 17.5775 52.658 17.5264 52.3717 17.5326ZM52.4219 20.959C52.1795 20.959 51.9425 20.8871 51.7409 20.7524C51.5393 20.6177 51.3822 20.4262 51.2894 20.2022C51.1966 19.9782 51.1723 19.7318 51.2196 19.494C51.2669 19.2562 51.3837 19.0377 51.5551 18.8663C51.7266 18.6948 51.945 18.5781 52.1828 18.5308C52.4206 18.4835 52.6671 18.5078 52.8911 18.6005C53.1151 18.6933 53.3065 18.8505 53.4412 19.0521C53.5759 19.2536 53.6478 19.4907 53.6478 19.7331C53.648 19.8942 53.6164 20.0536 53.5549 20.2025C53.4933 20.3513 53.403 20.4865 53.2892 20.6003C53.1753 20.7142 53.0401 20.8045 52.8913 20.866C52.7425 20.9276 52.583 20.9592 52.4219 20.959Z" fill="#8637B9"/>
<path d="M9.7392 30.3638L0.294434 53.8184L18.003 50.9064L30.9906 53.8184L44.2916 50.9064L62.0795 54.2998L52.5567 30.3638L41.931 27.6873L31.1876 29.7344L20.2075 27.6873L9.7392 30.3638Z" fill="white"/>
<path d="M9.73973 30.3641L9.91297 30.3178L10.43 30.1855L12.456 29.6632L20.2041 27.6795H20.2107L31.1868 29.72H31.1776L41.921 27.6703H41.9395L52.5639 30.3389H52.5797V30.3535L62.1012 54.2894L62.125 54.3476L62.0628 54.3357L52.913 52.5901L44.2749 50.9423H44.2894L30.9872 53.8517H30.9792L17.993 50.9423H18.0036L0.29364 53.8517L0.25 53.8583L0.267191 53.8173C3.18843 46.5757 5.5569 40.7121 7.18877 36.6588L9.07455 31.9946L9.56517 30.7833C9.67625 30.5109 9.73444 30.372 9.73444 30.372C9.73444 30.372 9.68022 30.5135 9.57046 30.7886L9.08381 32.0052L7.21522 36.6694L0.318766 53.8279L0.290995 53.7935L18.0036 50.8762H18.0155L31.0017 53.7856H30.9885L44.2894 50.8762H44.2961L52.9341 52.524L62.084 54.2696L62.0457 54.3158L52.5242 30.3799L52.5453 30.3985L41.921 27.7192H41.9395L31.1921 29.7571H31.1829L20.2067 27.7047L12.4666 29.6777L10.4366 30.1922L9.91693 30.3244L9.73973 30.3641Z" fill="#263238"/>
<path d="M10.29 30.9935L1.94678 52.6376L17.9243 50.0404L31.1869 53.1097L44.2909 49.9623L60.5832 53.1097L52.0046 30.9935L42.0877 28.5536L31.1869 30.6007L20.0495 28.5536L10.29 30.9935Z" fill="white"/>
<path d="M2.87451 50.2333L15.5738 47.2909L15.1056 44.5561L16.1609 43.8909L14.5185 37.5023L9.44036 33.1978L2.87451 50.2333Z" fill="#455A64"/>
<path d="M1.94678 52.6377L2.56567 51.0323L23.8594 46.0851L25.0152 49.2682L24.6409 49.9109L20.6419 50.6699L17.9243 50.0405L1.94678 52.6377Z" fill="#EBEBEB"/>
<path d="M25.0166 45.7768L25.8616 48.9255L28.3147 49.9914L31.8033 48.4415L39.1229 46.3097L36.8391 42.8688L25.0166 45.7768Z" fill="#EBEBEB"/>
<path d="M16.513 46.9433L20.4697 46.0851L19.6802 43.5143L16.7973 44.2099L16.0303 44.7521L16.513 46.9433Z" fill="#E0E0E0"/>
<path d="M15.7031 38.423L17.1393 43.1374L19.3848 42.6428L18.9801 40.8324L23.9194 39.7256L15.7031 38.423Z" fill="#455A64"/>
<path d="M9.81543 32.2299L16.0295 37.2181L24.2788 38.7826L33.0782 36.5953L29.062 30.2093L20.051 28.5536L10.2915 30.9935L9.81543 32.2299Z" fill="#EBEBEB"/>
<path d="M30.2642 30.4301L43.1644 50.2334L44.2925 49.9623L31.8061 30.4843L31.1885 30.6006L30.2642 30.4301Z" fill="#EBEBEB"/>
<path d="M19.812 41.331L21.4465 46.0851L35.9588 42.377L33.273 37.8054L19.812 41.331Z" fill="#E0E0E0"/>
<path d="M27.8843 52.3455L28.0258 52.1352L28.9792 50.7189L31.2657 49.9916L32.8394 48.8067L39.6592 46.9434L41.7777 50.5655L31.1877 53.1098" fill="#E0E0E0"/>
<path d="M39.9663 28.9516L43.3835 32.7536L52.0057 30.9935L42.0888 28.5536L39.9663 28.9516Z" fill="#E0E0E0"/>
<path d="M53.8191 35.6707L47.4873 37.4309L44.291 33.1978L52.2203 31.5514L53.8191 35.6707Z" fill="#E0E0E0"/>
<path d="M32.4829 30.356L39.1228 39.8933L46.785 37.6941L39.1228 29.1102L32.4829 30.356Z" fill="#EBEBEB"/>
<path d="M51.0435 51.2662L58.7043 48.2656L60.5834 53.1097L51.0435 51.2662Z" fill="#E0E0E0"/>
<path d="M43.0312 39.3234L47.1942 38.2377L51.5913 43.5142L47.3119 44.9344L43.0312 39.3234Z" fill="#455A64"/>
<path d="M48.1328 37.8053L52.7653 43.1162L56.2538 41.9445L53.9594 36.0306L48.1328 37.8053Z" fill="#E0E0E0"/>
<path d="M51.5923 50.0273L48.1328 45.2282L56.4945 42.5635L58.1925 46.9434L57.1028 48.0396L51.5923 50.0273Z" fill="#455A64"/>
<path d="M39.5283 40.5942L45.8839 50.2334L49.7983 51.0255L50.5362 50.6883L42.4826 39.7042L39.5283 40.5942Z" fill="#E0E0E0"/>
<path d="M13.4817 47.7763L11.8987 40.3311L6.31546 41.307L2.87451 50.2334L13.4817 47.7763Z" fill="#E0E0E0"/>
<path d="M18.6162 28.9119V32.3211L19.8116 32.4718L23.1495 36.3598L26.0191 36.0305L27.3852 38.0102L24.2788 38.7825L16.0295 37.218L9.81543 32.2298L10.2915 30.9934L18.6162 28.9119Z" fill="#455A64"/>
<path d="M36.0679 29.7133L40.7559 36.5542L44.7946 35.4632L39.124 29.1102L36.0679 29.7133Z" fill="#E0E0E0"/>
<path d="M49.8295 36.7803L48.1328 34.1289L52.719 32.8329L53.8206 35.6708L49.8295 36.7803Z" fill="#EBEBEB"/>
<path d="M43.0312 45.9077L45.2516 45.1394L49.5574 50.9766L45.8837 50.2334L43.0312 45.9077Z" fill="#EBEBEB"/>
<path d="M22.5532 51.1114L24.6175 50.8601L25.3052 49.8538L27.8839 50.6644L27.2095 52.1892L22.5532 51.1114Z" fill="#455A64"/>
<path d="M10.2907 31.0001L10.9334 30.8348L12.8218 30.3587L20.0463 28.5431H20.0529L31.1917 30.5836H31.1824L42.0832 28.5325H42.0951L52.0133 30.9697H52.0278V30.9856C54.6608 37.7445 57.5609 45.2241 60.6157 53.0979L60.6381 53.156L60.5773 53.1441L52.4034 51.5652L44.285 49.9954H44.2996L31.1956 53.1428H31.1798L17.9185 50.0708H17.9304L1.9515 52.6628L1.90918 52.6694L1.92373 52.6284C4.50643 45.9435 6.59718 40.5322 8.04127 36.7923C8.76464 34.9251 9.32535 33.4744 9.70621 32.4905L10.1413 31.373C10.2391 31.1205 10.2907 30.9935 10.2907 30.9935C10.2907 30.9935 10.2418 31.1257 10.1453 31.3783L9.71678 32.4997L8.06243 36.8109L1.97133 52.6469L1.94356 52.6138L17.9198 50.0113H17.9317L31.1943 53.0846H31.1798L44.2837 49.9359H44.2916L52.4166 51.4977L60.5852 53.0767L60.5469 53.123C57.4934 45.2479 54.596 37.7736 51.971 31.0054L51.9921 31.0239L42.0739 28.5814H42.0858L31.1837 30.6232H31.1745L20.0396 28.5708L12.8324 30.3667L10.94 30.8361L10.2907 31.0001Z" fill="#263238"/>
<g opacity="0.2">
<path d="M30.9915 53.8186L31.1885 29.7346L20.2084 27.6875L18.0039 50.9067L30.9915 53.8186Z" fill="black"/>
</g>
<g opacity="0.2">
<path d="M41.9316 27.6875L44.2922 50.9067L62.0801 54.3L52.5573 30.3641L41.9316 27.6875Z" fill="black"/>
</g>
<path d="M31.2719 6.94398C23.6018 7.12251 17.3454 13.3749 17.1629 21.045C17.0822 24.1935 18.0369 27.2816 19.8805 29.8352L20.022 30.0269L20.0419 30.0547L30.2774 43.9772C30.4863 44.2612 30.7603 44.4908 31.0765 44.6466C31.3927 44.8024 31.7418 44.8799 32.0942 44.8725C32.4466 44.8651 32.7921 44.7731 33.1015 44.6041C33.4108 44.4352 33.6751 44.1943 33.8718 43.9018L43.1288 30.1486C44.8797 27.4773 46.0804 24.687 46.0804 21.3968C46.0805 19.4687 45.6948 17.56 44.9462 15.7832C44.1975 14.0063 43.101 12.3972 41.7211 11.0505C40.3413 9.70376 38.7059 8.64668 36.9114 7.94144C35.1169 7.2362 33.1995 6.89706 31.2719 6.94398ZM31.6157 31.9101C29.466 31.9103 27.3644 31.2731 25.5769 30.0789C23.7893 28.8848 22.396 27.1874 21.5731 25.2014C20.7503 23.2153 20.5348 21.0299 20.9541 18.9214C21.3733 16.8129 22.4084 14.8761 23.9284 13.356C25.4484 11.8358 27.3851 10.8005 29.4935 10.381C31.6019 9.96147 33.7874 10.1766 35.7735 10.9992C37.7596 11.8219 39.4572 13.215 40.6516 15.0024C41.8459 16.7898 42.4834 18.8913 42.4834 21.041C42.4834 23.9235 41.3385 26.6878 39.3004 28.7261C37.2624 30.7644 34.4981 31.9097 31.6157 31.9101Z" fill="#8637B9"/>
<g opacity="0.3">
<path d="M31.2709 6.9441C23.6009 7.12263 17.3445 13.3751 17.162 21.0451C17.0812 24.1937 18.0359 27.2817 19.8795 29.8353L20.021 30.0271L20.0409 30.0548L30.2765 43.9773C30.4853 44.2613 30.7594 44.4909 31.0756 44.6467C31.3917 44.8026 31.7408 44.88 32.0932 44.8726C32.4456 44.8653 32.7911 44.7732 33.1005 44.6043C33.4099 44.4353 33.6741 44.1944 33.8708 43.902L43.1278 30.1487C44.8787 27.4774 46.0795 24.6871 46.0795 21.3969C46.0795 19.4688 45.6938 17.5601 44.9452 15.7833C44.1965 14.0064 43.1 12.3973 41.7201 11.0506C40.3403 9.70388 38.705 8.6468 36.9105 7.94156C35.1159 7.23633 33.1985 6.89718 31.2709 6.9441ZM31.6148 31.9102C29.465 31.9104 27.3635 31.2732 25.5759 30.0791C23.7883 28.8849 22.395 27.1875 21.5721 25.2015C20.7493 23.2154 20.5339 21.03 20.9531 18.9215C21.3723 16.8131 22.4074 14.8763 23.9274 13.3561C25.4474 11.8359 27.3841 10.8006 29.4925 10.3811C31.6009 9.96159 33.7864 10.1768 35.7725 10.9994C37.7587 11.822 39.4562 13.2151 40.6506 15.0025C41.845 16.79 42.4825 18.8914 42.4825 21.0412C42.4825 23.9236 41.3375 26.688 39.2995 28.7263C37.2614 30.7646 34.4972 31.9098 31.6148 31.9102Z" fill="black"/>
</g>
<path d="M30.414 6.94398C22.7439 7.12251 16.4875 13.3749 16.305 21.045C16.2243 24.1935 17.179 27.2816 19.0226 29.8352L19.1641 30.0269L19.1839 30.0547L29.4195 43.9772C29.6284 44.2612 29.9024 44.4908 30.2186 44.6466C30.5348 44.8024 30.8838 44.8799 31.2363 44.8725C31.5887 44.8651 31.9342 44.7731 32.2436 44.6041C32.5529 44.4352 32.8171 44.1943 33.0139 43.9018L42.2709 30.1486C44.0218 27.4773 45.2225 24.687 45.2225 21.3968C45.2226 19.4687 44.8369 17.56 44.0883 15.7832C43.3396 14.0063 42.2431 12.3972 40.8632 11.0505C39.4834 9.70376 37.848 8.64668 36.0535 7.94144C34.259 7.2362 32.3415 6.89706 30.414 6.94398ZM30.7578 31.9101C28.6081 31.9103 26.5065 31.2731 24.719 30.0789C22.9314 28.8848 21.5381 27.1874 20.7152 25.2014C19.8924 23.2153 19.6769 21.0299 20.0962 18.9214C20.5154 16.8129 21.5505 14.8761 23.0705 13.356C24.5905 11.8358 26.5272 10.8005 28.6356 10.381C30.744 9.96147 32.9295 10.1766 34.9156 10.9992C36.9017 11.8219 38.5993 13.215 39.7937 15.0024C40.988 16.7898 41.6255 18.8913 41.6255 21.041C41.6255 23.9235 40.4806 26.6878 38.4425 28.7261C36.4045 30.7644 33.6402 31.9097 30.7578 31.9101Z" fill="#8637B9"/>
<g opacity="0.3">
<path d="M37.0109 29.2389C36.8364 29.4359 25.3432 32.4709 25.1699 32.6679C27.3731 33.3397 30.0629 33.9242 32.3666 33.7907C33.6639 33.7166 35.0114 33.4852 36.0429 32.6865C37.0744 31.8877 37.6351 30.3788 37.0109 29.2389Z" fill="black"/>
</g>
<path d="M39.6834 34.5219H22.5963C22.2414 34.5219 21.9536 34.8096 21.9536 35.1645V39.8235C21.9536 40.1784 22.2414 40.4662 22.5963 40.4662H39.6834C40.0383 40.4662 40.3261 40.1784 40.3261 39.8235V35.1645C40.3261 34.8096 40.0383 34.5219 39.6834 34.5219Z" fill="white"/>
<path d="M39.6898 40.4674C39.6898 40.4674 39.7321 40.4674 39.8115 40.4516C39.9289 40.4274 40.0371 40.3706 40.1236 40.2876C40.1944 40.2201 40.2491 40.1375 40.2834 40.0459C40.3178 39.9542 40.331 39.856 40.3219 39.7586C40.3219 39.5259 40.3219 39.2587 40.3219 38.9652C40.3219 38.3635 40.3219 37.6282 40.3219 36.7739C40.3219 36.3463 40.3219 35.8905 40.3219 35.4065C40.3266 35.2852 40.3226 35.1636 40.31 35.0428C40.2854 34.9231 40.2261 34.8131 40.1395 34.7268C40.0502 34.6376 39.9357 34.5781 39.8115 34.5562C39.6796 34.5449 39.5471 34.5418 39.4148 34.5469L22.612 34.5562C22.4654 34.556 22.3237 34.6087 22.2129 34.7047C22.1021 34.8007 22.0297 34.9334 22.009 35.0786C21.9971 35.1724 22.009 35.2782 22.0024 35.3787V39.5232C22.0024 39.6184 22.0024 39.715 22.0024 39.8102C22.0007 39.9013 22.0192 39.9916 22.0566 40.0747C22.0936 40.1569 22.1483 40.23 22.2169 40.2885C22.2855 40.3471 22.3663 40.3896 22.4533 40.4132C22.54 40.4329 22.629 40.4405 22.7178 40.4357H25.1696H32.7233L37.8159 40.4476H39.2005L37.8159 40.4542L32.7233 40.4648L25.1696 40.4727H22.7059C22.6091 40.478 22.5121 40.4695 22.4176 40.4476C22.2732 40.4081 22.146 40.3217 22.056 40.202C21.966 40.0823 21.9183 39.9361 21.9204 39.7864V38.9215C21.9204 38.1483 21.9204 37.3615 21.9204 36.561V35.3549C21.9178 35.2517 21.9205 35.1484 21.9283 35.0455C21.9428 34.9386 21.9832 34.8369 22.046 34.7493C22.1091 34.6614 22.192 34.5897 22.2881 34.5401C22.3842 34.4904 22.4906 34.4642 22.5988 34.4636L39.4015 34.4742C39.5339 34.4698 39.6664 34.4738 39.7983 34.4861C39.9295 34.5106 40.0503 34.5742 40.1448 34.6686C40.2392 34.763 40.3028 34.8838 40.3272 35.0151C40.341 35.1384 40.345 35.2627 40.3391 35.3867C40.3391 35.8707 40.3391 36.3265 40.3391 36.7541C40.3391 37.6084 40.3391 38.341 40.3391 38.9453C40.3391 39.2451 40.3391 39.5096 40.3391 39.7388C40.3446 39.8468 40.3261 39.9548 40.2849 40.0548C40.2482 40.137 40.1951 40.2108 40.1289 40.2717C40.0399 40.3549 39.9288 40.4105 39.8088 40.4317C39.7787 40.4372 39.7482 40.4403 39.7176 40.441L39.6898 40.4674Z" fill="#263238"/>
<path d="M23.7857 37.0212C23.7852 36.9539 23.7985 36.8873 23.8249 36.8255C23.8513 36.7636 23.8901 36.7079 23.939 36.6617C23.9879 36.6156 24.0458 36.58 24.1091 36.5572C24.1723 36.5344 24.2396 36.5249 24.3067 36.5292C24.3837 36.5256 24.4606 36.5399 24.5312 36.5708C24.6019 36.6018 24.6644 36.6487 24.714 36.7078L24.5434 36.8625C24.5175 36.8277 24.4837 36.7996 24.4449 36.7803C24.4061 36.761 24.3633 36.7511 24.3199 36.7514C24.2482 36.7514 24.1794 36.7799 24.1287 36.8306C24.078 36.8813 24.0495 36.9501 24.0495 37.0218C24.0495 37.0936 24.078 37.1623 24.1287 37.2131C24.1794 37.2638 24.2482 37.2923 24.3199 37.2923C24.3632 37.2923 24.4059 37.2822 24.4447 37.263C24.4835 37.2437 24.5173 37.2157 24.5434 37.1812L24.714 37.3346C24.6644 37.3937 24.6019 37.4405 24.5312 37.4715C24.4606 37.5025 24.3837 37.5167 24.3067 37.5131C24.2396 37.5175 24.1723 37.508 24.1091 37.4852C24.0458 37.4624 23.9879 37.4268 23.939 37.3806C23.8901 37.3345 23.8513 37.2787 23.8249 37.2169C23.7985 37.155 23.7852 37.0884 23.7857 37.0212Z" fill="#263238"/>
<path d="M24.8137 37.0728V36.5438H25.0782V37.0609C25.0782 37.2235 25.1456 37.2883 25.258 37.2883C25.3704 37.2883 25.4365 37.2235 25.4365 37.0609V36.5544H25.701V37.0834C25.6948 37.1972 25.6452 37.3043 25.5625 37.3827C25.4797 37.4611 25.37 37.5048 25.256 37.5048C25.142 37.5048 25.0324 37.4611 24.9496 37.3827C24.8668 37.3043 24.8172 37.1972 24.811 37.0834L24.8137 37.0728Z" fill="#263238"/>
<path d="M26.299 37.2435H26.1522V37.4948H25.8877V36.5546H26.3201C26.5846 36.5546 26.7407 36.6868 26.7407 36.905C26.7432 36.9676 26.7269 37.0296 26.6939 37.0828C26.6609 37.1361 26.6127 37.1783 26.5555 37.2039L26.7592 37.5014H26.4656L26.299 37.2435ZM26.299 36.7595H26.1495V37.0359H26.299C26.4087 37.0359 26.4643 36.9857 26.4643 36.9037C26.4643 36.8217 26.4114 36.7595 26.3016 36.7595H26.299Z" fill="#263238"/>
<path d="M27.299 37.2435H27.1522V37.4948H26.8877V36.5546H27.3201C27.5846 36.5546 27.7407 36.6868 27.7407 36.905C27.7432 36.9676 27.7269 37.0296 27.6939 37.0828C27.6609 37.1361 27.6127 37.1783 27.5555 37.2039L27.7592 37.5014H27.4709L27.299 37.2435ZM27.299 36.7595H27.1495V37.0359H27.299C27.4101 37.0359 27.4656 36.9857 27.4656 36.9037C27.4656 36.8217 27.4127 36.7595 27.3016 36.7595H27.299Z" fill="#263238"/>
<path d="M28.6447 37.2885V37.4948H27.8843V36.5546H28.6275V36.7622H28.1501V36.9209H28.5706V37.1219H28.1501V37.2951L28.6447 37.2885Z" fill="#263238"/>
<path d="M29.6934 36.5546V37.5014H29.4726L29.056 36.9976V37.5014H28.7915V36.5546H29.0123L29.4302 37.0597V36.5546H29.6934Z" fill="#263238"/>
<path d="M30.0826 36.7609H29.793V36.5546H30.6406V36.7675H30.351V37.5014H30.0865L30.0826 36.7609Z" fill="#263238"/>
<path d="M31.1338 36.5546H31.3983V37.2898H31.8492V37.5014H31.1338V36.5546Z" fill="#263238"/>
<path d="M31.8949 37.0212C31.8874 36.9153 31.912 36.8096 31.9654 36.7179C32.0189 36.6262 32.0987 36.5527 32.1944 36.5069C32.2902 36.4611 32.3975 36.4452 32.5024 36.4613C32.6074 36.4773 32.705 36.5245 32.7828 36.5968C32.8605 36.6691 32.9147 36.7631 32.9383 36.8666C32.9619 36.9701 32.9538 37.0783 32.9151 37.1771C32.8763 37.2759 32.8088 37.3608 32.7212 37.4208C32.6336 37.4807 32.53 37.5129 32.4238 37.5131C32.3563 37.5178 32.2885 37.5086 32.2246 37.4861C32.1607 37.4635 32.1022 37.428 32.0526 37.3819C32.003 37.3358 31.9634 37.28 31.9363 37.2179C31.9092 37.1559 31.8951 37.0889 31.8949 37.0212ZM32.6764 37.0212C32.6736 36.9712 32.6561 36.9231 32.6263 36.8828C32.5964 36.8426 32.5554 36.812 32.5084 36.7948C32.4613 36.7776 32.4102 36.7745 32.3615 36.786C32.3127 36.7975 32.2684 36.823 32.2339 36.8594C32.1995 36.8958 32.1765 36.9415 32.1677 36.9908C32.1589 37.0401 32.1648 37.091 32.1845 37.137C32.2043 37.183 32.2371 37.2223 32.279 37.2499C32.3208 37.2775 32.3698 37.2922 32.4199 37.2923C32.4552 37.2933 32.4905 37.2869 32.5232 37.2735C32.556 37.2601 32.5856 37.24 32.6101 37.2144C32.6347 37.1889 32.6536 37.1585 32.6657 37.1252C32.6778 37.092 32.6828 37.0565 32.6804 37.0212H32.6764Z" fill="#263238"/>
<path d="M33.0391 37.0212C33.0384 36.954 33.0516 36.8874 33.0778 36.8256C33.1041 36.7637 33.1428 36.708 33.1916 36.6618C33.2404 36.6156 33.2982 36.58 33.3614 36.5572C33.4245 36.5344 33.4918 36.5249 33.5588 36.5292C33.6359 36.5256 33.7127 36.5399 33.7833 36.5708C33.854 36.6018 33.9165 36.6487 33.9661 36.7078L33.7955 36.8625C33.7696 36.8277 33.7358 36.7996 33.697 36.7803C33.6582 36.761 33.6154 36.7511 33.572 36.7514C33.5003 36.7514 33.4315 36.7799 33.3808 36.8306C33.3301 36.8813 33.3016 36.9501 33.3016 37.0218C33.3016 37.0936 33.3301 37.1623 33.3808 37.2131C33.4315 37.2638 33.5003 37.2923 33.572 37.2923C33.6153 37.2923 33.658 37.2822 33.6968 37.263C33.7356 37.2437 33.7694 37.2157 33.7955 37.1812L33.9661 37.3346C33.9165 37.3937 33.854 37.4405 33.7833 37.4715C33.7127 37.5025 33.6359 37.5167 33.5588 37.5131C33.4918 37.5175 33.4245 37.508 33.3614 37.4852C33.2982 37.4624 33.2404 37.4268 33.1916 37.3806C33.1428 37.3344 33.1041 37.2786 33.0778 37.2168C33.0516 37.1549 33.0384 37.0884 33.0391 37.0212Z" fill="#263238"/>
<path d="M34.703 37.3108H34.3063L34.2322 37.4946H33.9585L34.3764 36.5477H34.6409L35.0601 37.4946H34.781L34.703 37.3108ZM34.6237 37.1137L34.5033 36.8109L34.3817 37.1137H34.6237Z" fill="#263238"/>
<path d="M35.2851 36.7609H34.9941V36.5546H35.8418V36.7675H35.5535V37.5014H35.289L35.2851 36.7609Z" fill="#263238"/>
<path d="M35.9409 36.5546H36.2054V37.5014H35.9409V36.5546Z" fill="#263238"/>
<path d="M36.3514 37.0212C36.344 36.9153 36.3686 36.8096 36.422 36.7179C36.4754 36.6262 36.5552 36.5527 36.651 36.5069C36.7467 36.4611 36.8541 36.4452 36.959 36.4613C37.0639 36.4773 37.1616 36.5245 37.2393 36.5968C37.317 36.6691 37.3712 36.7631 37.3948 36.8666C37.4184 36.9701 37.4103 37.0783 37.3716 37.1771C37.3329 37.2759 37.2653 37.3608 37.1777 37.4208C37.0901 37.4807 36.9865 37.5129 36.8804 37.5131C36.8128 37.5178 36.745 37.5086 36.6811 37.4861C36.6173 37.4635 36.5588 37.428 36.5092 37.3819C36.4596 37.3358 36.42 37.28 36.3928 37.2179C36.3657 37.1559 36.3516 37.0889 36.3514 37.0212ZM37.1329 37.0212C37.1301 36.9712 37.1127 36.9231 37.0828 36.8828C37.053 36.8426 37.012 36.812 36.9649 36.7948C36.9179 36.7776 36.8668 36.7745 36.818 36.786C36.7693 36.7975 36.7249 36.823 36.6905 36.8594C36.656 36.8958 36.633 36.9415 36.6242 36.9908C36.6154 37.0401 36.6213 37.091 36.6411 37.137C36.6609 37.183 36.6937 37.2223 36.7355 37.2499C36.7773 37.2775 36.8263 37.2922 36.8764 37.2923C36.9115 37.2927 36.9462 37.2859 36.9785 37.2723C37.0108 37.2586 37.0399 37.2384 37.064 37.2129C37.0881 37.1875 37.1067 37.1573 37.1186 37.1243C37.1304 37.0913 37.1353 37.0562 37.1329 37.0212Z" fill="#263238"/>
<path d="M38.4433 36.5546V37.5014H38.2224L37.8045 36.9976V37.5014H37.54V36.5546H37.7609L38.1788 37.0597V36.5546H38.4433Z" fill="#263238"/>
<path d="M25.8535 38.6001C25.8592 38.503 25.8933 38.4098 25.9516 38.3321C26.0099 38.2543 26.0899 38.1955 26.1814 38.1629C26.273 38.1303 26.3721 38.1254 26.4664 38.1488C26.5607 38.1723 26.6461 38.2229 26.7118 38.2946L26.5795 38.4176C26.552 38.3843 26.5174 38.3576 26.4783 38.3393C26.4392 38.321 26.3966 38.3116 26.3534 38.3118C26.2769 38.3118 26.2036 38.3421 26.1495 38.3962C26.0955 38.4503 26.0651 38.5236 26.0651 38.6001C26.0651 38.6765 26.0955 38.7498 26.1495 38.8039C26.2036 38.858 26.2769 38.8883 26.3534 38.8883C26.3967 38.8888 26.4396 38.8794 26.4788 38.8609C26.518 38.8423 26.5524 38.8151 26.5795 38.7812L26.7118 38.9042C26.6464 38.9764 26.5612 39.0276 26.4668 39.0515C26.3724 39.0753 26.2731 39.0707 26.1813 39.0381C26.0895 39.0056 26.0094 38.9467 25.9511 38.8687C25.8928 38.7907 25.8588 38.6973 25.8535 38.6001Z" fill="#E0E0E0"/>
<path d="M26.8501 38.1506H27.059V39.0499H26.8501V38.1506Z" fill="#E0E0E0"/>
<path d="M27.4602 38.3199H27.1719V38.1506H27.9561V38.3199H27.6678V39.0499H27.4602V38.3199Z" fill="#E0E0E0"/>
<path d="M28.4806 38.7312V39.0499H28.273V38.7285L27.9199 38.1506H28.1408L28.3801 38.5474L28.6208 38.1506H28.8258L28.4806 38.7312Z" fill="#E0E0E0"/>
<path d="M29.0559 38.9348C29.0545 38.9811 29.0423 39.0264 29.0202 39.067L28.9474 39.2522H28.8152L28.8707 39.0472C28.8493 39.0386 28.8312 39.0236 28.8188 39.0041C28.8065 38.9846 28.8006 38.9618 28.802 38.9388C28.802 38.9058 28.815 38.8742 28.8384 38.8509C28.8617 38.8276 28.8933 38.8145 28.9263 38.8145C28.9592 38.8145 28.9908 38.8276 29.0142 38.8509C29.0375 38.8742 29.0506 38.9058 29.0506 38.9388L29.0559 38.9348Z" fill="#E0E0E0"/>
<path d="M29.5073 38.6003C29.5133 38.5033 29.5477 38.4102 29.6062 38.3325C29.6647 38.2549 29.7446 38.1962 29.8362 38.1636C29.9278 38.1311 30.0269 38.1262 30.1213 38.1495C30.2156 38.1728 30.301 38.2233 30.3669 38.2948L30.2347 38.4178C30.2072 38.3845 30.1726 38.3577 30.1335 38.3394C30.0944 38.3211 30.0517 38.3117 30.0085 38.312C29.9321 38.312 29.8587 38.3424 29.8047 38.3964C29.7506 38.4505 29.7202 38.5238 29.7202 38.6003C29.7202 38.6767 29.7506 38.7501 29.8047 38.8041C29.8587 38.8582 29.9321 38.8886 30.0085 38.8886C30.0519 38.8892 30.0949 38.8799 30.1341 38.8614C30.1733 38.8428 30.2077 38.8154 30.2347 38.7814L30.3669 38.9044C30.3014 38.9764 30.2161 39.0275 30.1216 39.0512C30.0272 39.075 29.9279 39.0703 29.8361 39.0378C29.7443 39.0054 29.6642 38.9465 29.6057 38.8687C29.5472 38.7908 29.513 38.6975 29.5073 38.6003Z" fill="#E0E0E0"/>
<path d="M30.4324 38.6004C30.4269 38.5018 30.451 38.4038 30.5018 38.319C30.5526 38.2343 30.6276 38.1668 30.7172 38.1252C30.8068 38.0836 30.9068 38.0699 31.0042 38.0858C31.1017 38.1017 31.1922 38.1464 31.2639 38.2143C31.3357 38.2822 31.3854 38.3701 31.4066 38.4665C31.4279 38.563 31.4197 38.6636 31.3831 38.7553C31.3465 38.8471 31.2832 38.9257 31.2014 38.9811C31.1197 39.0364 31.0231 39.066 30.9244 39.0659C30.861 39.0695 30.7977 39.0601 30.7381 39.0383C30.6785 39.0166 30.624 38.9828 30.578 38.9392C30.5319 38.8957 30.4952 38.8431 30.4702 38.7848C30.4452 38.7266 30.4323 38.6638 30.4324 38.6004ZM31.206 38.6004C31.2047 38.545 31.1871 38.4912 31.1554 38.4457C31.1237 38.4003 31.0792 38.3652 31.0277 38.3449C30.9761 38.3246 30.9197 38.32 30.8655 38.3316C30.8113 38.3432 30.7617 38.3705 30.723 38.4101C30.6842 38.4498 30.6581 38.5 30.6477 38.5544C30.6374 38.6089 30.6433 38.6652 30.6648 38.7163C30.6863 38.7673 30.7224 38.811 30.7686 38.8416C30.8148 38.8723 30.8689 38.8887 30.9244 38.8887C30.9624 38.89 31.0003 38.8834 31.0357 38.8693C31.071 38.8553 31.1031 38.834 31.1298 38.8069C31.1565 38.7798 31.1773 38.7475 31.1909 38.7119C31.2045 38.6764 31.2105 38.6384 31.2087 38.6004H31.206Z" fill="#E0E0E0"/>
<path d="M31.5684 38.6545V38.1506H31.776V38.6465C31.776 38.8171 31.85 38.8885 31.977 38.8885C32.1039 38.8885 32.1767 38.8171 32.1767 38.6465V38.1506H32.383V38.6545C32.383 38.7625 32.3401 38.8661 32.2637 38.9425C32.1873 39.0189 32.0837 39.0618 31.9757 39.0618C31.8676 39.0618 31.764 39.0189 31.6877 38.9425C31.6113 38.8661 31.5684 38.7625 31.5684 38.6545Z" fill="#E0E0E0"/>
<path d="M33.4141 38.1506V39.0499H33.2435L32.7952 38.5037V39.0499H32.5889V38.1506H32.7608L33.2104 38.6968V38.1506H33.4141Z" fill="#E0E0E0"/>
<path d="M33.8117 38.3199H33.5234V38.1506H34.3076V38.3199H34.0193V39.0499H33.8117V38.3199Z" fill="#E0E0E0"/>
<path d="M34.9929 39.0498L34.8196 38.8025H34.6279V39.0525H34.4189V38.1532H34.8157C35.055 38.1532 35.2058 38.2775 35.2058 38.4798C35.2084 38.5406 35.1919 38.6006 35.1587 38.6516C35.1255 38.7026 35.0773 38.7419 35.0207 38.7642L35.223 39.0525L34.9929 39.0498ZM34.7958 38.3198H34.6266V38.6332H34.7958C34.9281 38.6332 34.9876 38.5751 34.9876 38.4772C34.9876 38.3793 34.9281 38.3198 34.7958 38.3198Z" fill="#E0E0E0"/>
<path d="M35.7823 38.7312V39.0499H35.5747V38.7285L35.2256 38.1506H35.4464L35.6871 38.5474L35.9278 38.1506H36.1328L35.7823 38.7312Z" fill="#E0E0E0"/>
</svg>
