<?xml version="1.0" encoding="UTF-8"?>
<!DOCTYPE svg PUBLIC "-//W3C//DTD SVG 1.1//EN" "http://www.w3.org/Graphics/SVG/1.1/DTD/svg11.dtd">
<svg xmlns="http://www.w3.org/2000/svg" version="1.1" width="1379px" height="482px" style="shape-rendering:geometricPrecision; text-rendering:geometricPrecision; image-rendering:optimizeQuality; fill-rule:evenodd; clip-rule:evenodd" xmlns:xlink="http://www.w3.org/1999/xlink">
<g><path style="opacity:0.996" fill="#8537b9" d="M 19.5,-0.5 C 23.1667,-0.5 26.8333,-0.5 30.5,-0.5C 48.11,4.22773 63.2766,13.2277 76,26.5C 95.2062,17.824 115.373,13.1573 136.5,12.5C 136.5,20.1667 136.5,27.8333 136.5,35.5C 143.175,35.6663 149.842,35.4996 156.5,35C 155.167,27.6667 155.167,20.3333 156.5,13C 175.572,13.1837 193.905,17.0171 211.5,24.5C 223.813,12.0108 238.479,3.67744 255.5,-0.5C 259.167,-0.5 262.833,-0.5 266.5,-0.5C 276.021,17.282 279.521,36.282 277,56.5C 276.205,62.5134 274.705,68.3468 272.5,74C 278.682,84.1955 283.349,95.0289 286.5,106.5C 279.584,133.071 269.417,158.405 256,182.5C 224.423,232.051 178.923,256.718 119.5,256.5C 91.2201,255.898 63.8868,250.565 37.5,240.5C 36.479,241.002 36.3123,241.668 37,242.5C 50.0716,254.942 64.5716,265.275 80.5,273.5C 79.7153,278.154 78.882,282.821 78,287.5C 76.7494,290.381 74.5827,292.214 71.5,293C 62.5,293.667 53.5,293.667 44.5,293C 42.1523,292.654 40.3189,291.487 39,289.5C 32.135,267.237 25.4683,244.904 19,222.5C 15.2887,214.076 11.2887,205.742 7,197.5C 3.69181,188.587 1.19181,179.587 -0.5,170.5C -0.5,157.5 -0.5,144.5 -0.5,131.5C 2.03659,113.724 7.70325,96.8911 16.5,81C 3.77118,53.2951 4.77118,26.1285 19.5,-0.5 Z M 105.5,97.5 C 115.33,95.8292 119.163,99.8292 117,109.5C 114.089,113.277 110.256,114.444 105.5,113C 102.419,111.688 100.752,109.355 100.5,106C 100.671,102.186 102.337,99.3522 105.5,97.5 Z M 178.5,97.5 C 190.628,96.7523 193.961,101.586 188.5,112C 179.059,115.544 174.559,112.377 175,102.5C 175.997,100.677 177.164,99.0103 178.5,97.5 Z M 123.5,160.5 C 127.094,162.04 128.76,164.873 128.5,169C 128.65,172.539 127.15,175.039 124,176.5C 121.099,174.67 119.932,172.004 120.5,168.5C 120.073,165.174 121.073,162.508 123.5,160.5 Z M 167.5,160.5 C 171.166,161.818 172.833,164.484 172.5,168.5C 172.8,172.237 171.3,174.904 168,176.5C 165.099,174.67 163.932,172.004 164.5,168.5C 164.073,165.174 165.073,162.508 167.5,160.5 Z"/></g>
<g><path style="opacity:0.996" fill="#8536b8" d="M 420.5,15.5 C 455.026,12.952 488.693,17.1186 521.5,28C 530.085,30.9594 538.085,34.9594 545.5,40C 536.529,61.443 527.695,82.943 519,104.5C 518.481,105.516 517.647,106.182 516.5,106.5C 498.173,97.2245 478.84,91.0578 458.5,88C 447.833,87.3333 437.167,87.3333 426.5,88C 420.675,88.6643 415.508,90.8309 411,94.5C 405.759,103.761 408.259,110.261 418.5,114C 443.468,120.127 468.468,126.127 493.5,132C 547.932,148.361 567.099,183.861 551,238.5C 541.947,258.886 527.447,274.053 507.5,284C 482.609,295.445 456.443,300.611 429,299.5C 392.294,299.759 357.127,292.592 323.5,278C 319.241,276.066 315.241,273.732 311.5,271C 320.796,250.241 329.962,229.407 339,208.5C 339.687,206.445 340.854,204.779 342.5,203.5C 376.43,222.901 412.764,230.401 451.5,226C 457.74,225.144 462.24,221.977 465,216.5C 464.686,209.156 460.853,204.323 453.5,202C 430.57,196.08 407.57,190.414 384.5,185C 324.465,168.43 304.298,130.596 324,71.5C 337.584,47.2613 357.751,31.0946 384.5,23C 396.466,19.6412 408.466,17.1412 420.5,15.5 Z"/></g>
<g><path style="opacity:0.995" fill="#8536b8" d="M 961.5,15.5 C 995.249,13.0831 1028.25,16.9164 1060.5,27C 1069.75,30.2927 1078.42,34.626 1086.5,40C 1077.56,62.5114 1068.06,84.678 1058,106.5C 1034.31,94.7115 1009.31,88.0448 983,86.5C 974.336,86.849 965.836,88.349 957.5,91C 944.985,99.7945 945.652,107.461 959.5,114C 983.44,119.88 1007.44,125.546 1031.5,131C 1050.34,136.165 1066.84,145.332 1081,158.5C 1095.83,176.982 1101.17,197.982 1097,221.5C 1091.65,247.05 1077.81,266.55 1055.5,280C 1029.24,294.439 1001.07,300.939 971,299.5C 929.871,300.242 891.038,291.242 854.5,272.5C 854.167,271.833 853.833,271.167 853.5,270.5C 862.76,248.148 872.427,225.981 882.5,204C 887.925,205.703 893.258,208.036 898.5,211C 927.077,224.315 957.077,229.649 988.5,227C 993.021,226.271 997.354,224.937 1001.5,223C 1008.9,214.716 1007.56,208.05 997.5,203C 993.274,201.202 988.94,199.702 984.5,198.5C 956.77,193.984 929.77,186.818 903.5,177C 866.059,159.622 851.226,130.455 859,89.5C 866.401,61.0935 883.567,40.9269 910.5,29C 927.001,22.1265 944.001,17.6265 961.5,15.5 Z"/></g>
<g><path style="opacity:0.996" fill="#8536b9" d="M 572.5,21.5 C 603.5,21.5 634.5,21.5 665.5,21.5C 665.025,77.5324 665.525,133.532 667,189.5C 673.215,216.538 690.049,227.371 717.5,222C 731.045,218.117 739.545,209.284 743,195.5C 743.774,191.853 744.441,188.186 745,184.5C 745.333,130.5 745.667,76.5 746,22.5C 776.426,21.5045 806.926,21.1711 837.5,21.5C 837.667,73.1677 837.5,124.834 837,176.5C 833.886,249.593 796.052,290.427 723.5,299C 690.105,302.613 658.438,296.946 628.5,282C 594.003,260.209 575.503,228.709 573,187.5C 572.5,132.168 572.333,76.8343 572.5,21.5 Z"/></g>
<g><path style="opacity:0.995" fill="#8536b8" d="M 1378.5,21.5 C 1378.5,78.1667 1378.5,134.833 1378.5,191.5C 1368.34,256.49 1330.34,292.323 1264.5,299C 1240.03,301.358 1216.03,299.024 1192.5,292C 1141.87,272.292 1115.7,235.125 1114,180.5C 1113.5,127.501 1113.33,74.501 1113.5,21.5C 1144.5,21.5 1175.5,21.5 1206.5,21.5C 1206.33,72.5011 1206.5,123.501 1207,174.5C 1206,190.486 1211.17,204.319 1222.5,216C 1240.27,226.504 1257.6,225.838 1274.5,214C 1283.21,202.019 1287.38,188.519 1287,173.5C 1287.5,122.834 1287.67,72.1678 1287.5,21.5C 1317.83,21.5 1348.17,21.5 1378.5,21.5 Z"/></g>
<g><path style="opacity:0.999" fill="#9b60d9" d="M 116.5,27.5 C 118.833,27.5 121.167,27.5 123.5,27.5C 123.5,32.1667 123.5,36.8333 123.5,41.5C 77.6008,49.9256 45.1008,75.2589 26,117.5C 15.5626,147.656 18.0626,176.656 33.5,204.5C 32.6446,205.293 31.8113,204.96 31,203.5C 1.18376,158.322 2.85043,114.322 36,71.5C 58.0352,48.0656 84.8685,33.3989 116.5,27.5 Z"/></g>
<g><path style="opacity:1" fill="#5e1494" d="M 286.5,106.5 C 299.853,148.698 294.519,188.365 270.5,225.5C 268.983,225.511 267.816,226.177 267,227.5C 252.836,247.175 234.669,262.008 212.5,272C 211.748,272.671 211.414,273.504 211.5,274.5C 178.851,288.032 145.185,291.198 110.5,284C 100.079,281.583 90.0795,278.083 80.5,273.5C 64.5716,265.275 50.0716,254.942 37,242.5C 36.3123,241.668 36.479,241.002 37.5,240.5C 63.8868,250.565 91.2201,255.898 119.5,256.5C 178.923,256.718 224.423,232.051 256,182.5C 269.417,158.405 279.584,133.071 286.5,106.5 Z"/></g>
<g><path style="opacity:1" fill="#5d1393" d="M 203.5,165.5 C 202.504,165.414 201.671,165.748 201,166.5C 187.663,186.794 168.83,198.627 144.5,202C 132.339,203.376 120.339,203.876 108.5,203.5C 87.9476,189.232 83.781,171.232 96,149.5C 109.504,135.212 126.17,127.879 146,127.5C 166.584,127.632 183.584,135.299 197,150.5C 199.738,155.303 201.904,160.303 203.5,165.5 Z M 123.5,160.5 C 121.073,162.508 120.073,165.174 120.5,168.5C 119.932,172.004 121.099,174.67 124,176.5C 127.15,175.039 128.65,172.539 128.5,169C 128.76,164.873 127.094,162.04 123.5,160.5 Z M 167.5,160.5 C 165.073,162.508 164.073,165.174 164.5,168.5C 163.932,172.004 165.099,174.67 168,176.5C 171.3,174.904 172.8,172.237 172.5,168.5C 172.833,164.484 171.166,161.818 167.5,160.5 Z"/></g>
<g><path style="opacity:0.998" fill="#3c066c" d="M 203.5,165.5 C 203.673,186.306 194.006,200.472 174.5,208C 151.777,216.514 129.777,215.014 108.5,203.5C 120.339,203.876 132.339,203.376 144.5,202C 168.83,198.627 187.663,186.794 201,166.5C 201.671,165.748 202.504,165.414 203.5,165.5 Z"/></g>
<g><path style="opacity:0.992" fill="#8536b8" d="M 270.5,225.5 C 267.167,237.5 263.833,249.5 260.5,261.5C 251.925,269.131 242.925,276.297 233.5,283C 227.755,286.191 221.755,288.691 215.5,290.5C 214.21,289.942 213.377,288.942 213,287.5C 212.077,283.21 211.577,278.877 211.5,274.5C 211.414,273.504 211.748,272.671 212.5,272C 234.669,262.008 252.836,247.175 267,227.5C 267.816,226.177 268.983,225.511 270.5,225.5 Z"/></g>
<g><path style="opacity:0.997" fill="#5d1394" d="M 260.5,261.5 C 257.696,270.047 255.196,278.713 253,287.5C 251.445,290.055 249.278,291.888 246.5,293C 237.167,293.667 227.833,293.667 218.5,293C 217.058,292.623 216.058,291.79 215.5,290.5C 221.755,288.691 227.755,286.191 233.5,283C 242.925,276.297 251.925,269.131 260.5,261.5 Z"/></g>
<g><path style="opacity:1" fill="#206abe" d="M 1067.5,366.5 C 1065.39,365.532 1063.06,365.198 1060.5,365.5C 1043.81,363.141 1026.97,360.807 1010,358.5C 1009.05,358.095 1008.39,357.428 1008,356.5C 1006.39,348.245 1004.56,340.078 1002.5,332C 1003.95,330.883 1005.62,330.216 1007.5,330C 1031.83,327.083 1056.16,324.25 1080.5,321.5C 1077.32,336.535 1073.99,351.535 1070.5,366.5C 1069.5,366.5 1068.5,366.5 1067.5,366.5 Z"/></g>
<g><path style="opacity:0.999" fill="#206abd" d="M 1122.5,347.5 C 1135.5,347.333 1148.5,347.5 1161.5,348C 1176.55,352.939 1182.05,363.105 1178,378.5C 1174.22,388.609 1167.06,394.776 1156.5,397C 1148.55,398.223 1140.55,398.723 1132.5,398.5C 1131.89,404.238 1130.89,409.905 1129.5,415.5C 1122.83,415.5 1116.17,415.5 1109.5,415.5C 1113.58,392.783 1117.91,370.116 1122.5,347.5 Z M 1140.5,363.5 C 1145.94,363.789 1151.28,364.622 1156.5,366C 1159.94,372.056 1158.6,376.723 1152.5,380C 1147.25,381.271 1141.91,381.771 1136.5,381.5C 1137.41,375.372 1138.74,369.372 1140.5,363.5 Z"/></g>
<g><path style="opacity:1" fill="#216abd" d="M 1202.5,347.5 C 1209.42,347.188 1216.26,347.521 1223,348.5C 1228.36,370.814 1233.53,393.148 1238.5,415.5C 1231.83,415.666 1225.16,415.5 1218.5,415C 1217.44,411.208 1216.44,407.374 1215.5,403.5C 1206.52,402.335 1197.52,402.168 1188.5,403C 1186.04,406.75 1183.71,410.583 1181.5,414.5C 1174.53,415.497 1167.53,415.83 1160.5,415.5C 1160.34,414.127 1160.51,412.793 1161,411.5C 1175.09,390.309 1188.93,368.975 1202.5,347.5 Z M 1207.5,369.5 C 1208.65,369.791 1209.32,370.624 1209.5,372C 1210.38,376.733 1211.38,381.4 1212.5,386C 1207.83,386.667 1203.17,386.667 1198.5,386C 1201.91,380.686 1204.91,375.186 1207.5,369.5 Z"/></g>
<g><path style="opacity:0.999" fill="#206abd" d="M 1378.5,346.5 C 1378.5,347.5 1378.5,348.5 1378.5,349.5C 1367.05,358.778 1356.05,368.611 1345.5,379C 1353.18,390.831 1360.18,402.998 1366.5,415.5C 1359.16,415.666 1351.83,415.5 1344.5,415C 1339.66,407.341 1334.66,399.841 1329.5,392.5C 1327.18,394.316 1325.02,396.316 1323,398.5C 1321.38,404.081 1320.22,409.748 1319.5,415.5C 1312.5,415.5 1305.5,415.5 1298.5,415.5C 1299.01,412.824 1299.17,410.157 1299,407.5C 1294.13,412.24 1288.29,415.073 1281.5,416C 1267.35,418.926 1255.19,415.426 1245,405.5C 1238.92,397.503 1236.92,388.503 1239,378.5C 1244.93,357.095 1259.1,346.095 1281.5,345.5C 1292.18,345.555 1301.01,349.555 1308,357.5C 1308.49,358.793 1308.66,360.127 1308.5,361.5C 1307.45,361.351 1306.45,361.517 1305.5,362C 1301.94,365.233 1298.1,368.067 1294,370.5C 1287.85,363.557 1280.35,361.724 1271.5,365C 1261.93,370.342 1258.1,378.508 1260,389.5C 1260.5,393.02 1262.34,395.52 1265.5,397C 1275.19,400.326 1283.69,398.493 1291,391.5C 1294.33,394.833 1297.67,398.167 1301,401.5C 1304.95,383.576 1308.45,365.576 1311.5,347.5C 1318.5,347.5 1325.5,347.5 1332.5,347.5C 1331.4,355.479 1329.74,363.313 1327.5,371C 1336.96,364.235 1345.96,356.568 1354.5,348C 1362.58,347.802 1370.58,347.302 1378.5,346.5 Z"/></g>
<g><path style="opacity:0.946" fill="#8636b9" d="M 854.5,374.5 C 857.5,374.5 860.5,374.5 863.5,374.5C 863.334,381.508 863.5,388.508 864,395.5C 876.11,388.029 886.777,389.695 896,400.5C 902.231,413.062 900.064,423.895 889.5,433C 880.676,437.946 872.176,437.446 864,431.5C 863.51,432.793 863.343,434.127 863.5,435.5C 860.5,435.5 857.5,435.5 854.5,435.5C 854.5,415.167 854.5,394.833 854.5,374.5 Z M 871.5,400.5 C 886.636,399.14 892.136,405.806 888,420.5C 886.749,423.381 884.583,425.214 881.5,426C 868.021,427.854 862.188,422.021 864,408.5C 865.387,404.678 867.887,402.011 871.5,400.5 Z"/></g>
<g><path style="opacity:0.962" fill="#8636b9" d="M 907.5,390.5 C 909.042,391.301 910.708,391.634 912.5,391.5C 915.992,402.155 920.325,412.488 925.5,422.5C 930.257,412.649 934.757,402.649 939,392.5C 942.057,391.549 945.223,391.216 948.5,391.5C 941.51,409.818 933.677,427.818 925,445.5C 919.557,451.413 913.057,452.913 905.5,450C 903.187,449.359 901.52,448.026 900.5,446C 901.701,443.766 903.035,441.599 904.5,439.5C 911.993,444.604 917.326,442.937 920.5,434.5C 914.096,420.275 908.096,405.942 902.5,391.5C 904.415,391.784 906.081,391.451 907.5,390.5 Z"/></g>
<g><path style="opacity:1" fill="#206abd" d="M 1060.5,365.5 C 1062.61,366.468 1064.94,366.802 1067.5,366.5C 1070.29,367.477 1073.29,367.81 1076.5,367.5C 1075.07,377.141 1073.07,386.641 1070.5,396C 1072.49,396.18 1074.49,396.014 1076.5,395.5C 1073.57,409.419 1071.4,423.419 1070,437.5C 1076,420.833 1082,404.167 1088,387.5C 1088.75,386.874 1089.58,386.374 1090.5,386C 1095.37,385.754 1100.21,385.254 1105,384.5C 1112.06,386.178 1113.23,389.678 1108.5,395C 1103.85,395.499 1099.18,395.666 1094.5,395.5C 1088.96,410.912 1083.13,426.245 1077,441.5C 1077.75,447.606 1079.25,453.606 1081.5,459.5C 1081.47,461.029 1080.8,462.196 1079.5,463C 1077.17,463.333 1074.83,463.667 1072.5,464C 1076.08,465.664 1077.75,468.497 1077.5,472.5C 1077.62,476.595 1075.96,479.595 1072.5,481.5C 1069.83,481.5 1067.17,481.5 1064.5,481.5C 1056.69,475.622 1056.69,469.789 1064.5,464C 1049.9,462.171 1035.23,461.337 1020.5,461.5C 1020.5,460.5 1020.5,459.5 1020.5,458.5C 1036.34,457.65 1052.18,456.65 1068,455.5C 1068.83,455.167 1069.67,454.833 1070.5,454.5C 1069.25,452.677 1068.59,450.677 1068.5,448.5C 1051.17,447.853 1033.84,447.52 1016.5,447.5C 1016.5,446.5 1016.5,445.5 1016.5,444.5C 1027.5,443.791 1038.5,442.958 1049.5,442C 1034.47,442.606 1019.47,442.439 1004.5,441.5C 1001.2,430.319 998.538,418.985 996.5,407.5C 1000.23,407.205 1003.89,406.539 1007.5,405.5C 1003.67,389.866 1000.01,374.199 996.5,358.5C 1017.8,361.162 1039.13,363.496 1060.5,365.5 Z"/></g>
<g><path style="opacity:0.998" fill="#2169bc" d="M 1228.5,481.5 C 1222.83,481.5 1217.17,481.5 1211.5,481.5C 1214.83,464.168 1218.17,446.834 1221.5,429.5C 1232.94,427.859 1244.27,428.359 1255.5,431C 1266.2,437.472 1268.7,446.306 1263,457.5C 1259.71,463.067 1254.88,466.567 1248.5,468C 1242.21,469.107 1235.88,469.607 1229.5,469.5C 1229.17,473.5 1228.83,477.5 1228.5,481.5 Z M 1235.5,442.5 C 1239.42,443.267 1243.42,443.767 1247.5,444C 1250,447.538 1249.67,450.871 1246.5,454C 1242.25,455.195 1237.92,455.695 1233.5,455.5C 1234.06,451.147 1234.73,446.814 1235.5,442.5 Z"/></g>
<g><path style="opacity:0.999" fill="#206abd" d="M 1174.5,481.5 C 1169.83,481.5 1165.17,481.5 1160.5,481.5C 1156.18,472.862 1151.35,464.529 1146,456.5C 1143.47,464.621 1141.64,472.954 1140.5,481.5C 1135.17,481.5 1129.83,481.5 1124.5,481.5C 1126.67,471.169 1128.5,460.836 1130,450.5C 1127.25,454.619 1123.42,456.119 1118.5,455C 1113.57,452.647 1111.74,448.814 1113,443.5C 1116.5,438 1120,432.5 1123.5,427C 1126.76,426.788 1129.92,426.288 1133,425.5C 1132.7,430.137 1131.2,434.47 1128.5,438.5C 1130.02,441.64 1130.86,444.973 1131,448.5C 1132.36,442.19 1133.53,435.857 1134.5,429.5C 1139.21,429.173 1143.88,429.507 1148.5,430.5C 1153.5,438.5 1158.5,446.5 1163.5,454.5C 1165.81,446.294 1167.47,437.96 1168.5,429.5C 1174.09,429.193 1179.59,429.527 1185,430.5C 1189.76,424.772 1195.09,424.105 1201,428.5C 1202.46,431.366 1202.79,434.366 1202,437.5C 1199.12,443.423 1195.62,448.923 1191.5,454C 1188.18,454.498 1184.85,454.665 1181.5,454.5C 1182.73,450.196 1184.4,446.03 1186.5,442C 1184.98,439.422 1184.15,436.589 1184,433.5C 1180.77,449.505 1177.6,465.505 1174.5,481.5 Z"/></g>
<g><path style="opacity:0.998" fill="#206abd" d="M 1313.5,481.5 C 1307.83,481.5 1302.17,481.5 1296.5,481.5C 1296.04,478.518 1295.7,475.518 1295.5,472.5C 1288.49,472.334 1281.49,472.5 1274.5,473C 1272.44,475.614 1270.78,478.447 1269.5,481.5C 1263.83,481.5 1258.17,481.5 1252.5,481.5C 1262.88,464.432 1273.54,447.432 1284.5,430.5C 1290.05,429.194 1295.55,429.194 1301,430.5C 1305.33,447.476 1309.49,464.476 1313.5,481.5 Z M 1288.5,447.5 C 1289.65,447.791 1290.32,448.624 1290.5,450C 1290.98,452.888 1291.64,455.721 1292.5,458.5C 1289.22,459.657 1285.88,459.824 1282.5,459C 1285.16,455.507 1287.16,451.673 1288.5,447.5 Z"/></g>
<g><path style="opacity:0.999" fill="#206abd" d="M 1336.5,481.5 C 1330.83,481.5 1325.17,481.5 1319.5,481.5C 1320.83,475.53 1322.16,469.53 1323.5,463.5C 1319.15,452.135 1314.81,440.802 1310.5,429.5C 1316.21,429.171 1321.87,429.505 1327.5,430.5C 1329.74,436.645 1332.24,442.645 1335,448.5C 1339.83,442.333 1344.67,436.167 1349.5,430C 1354.75,429.807 1359.92,429.307 1365,428.5C 1365.5,429 1366,429.5 1366.5,430C 1358,440.5 1349.5,451 1341,461.5C 1339.05,468.059 1337.55,474.726 1336.5,481.5 Z"/></g>
<g><path style="opacity:0.999" fill="#206bbe" d="M 1036.5,481.5 C 1033.83,481.5 1031.17,481.5 1028.5,481.5C 1023.81,478.056 1022.31,473.39 1024,467.5C 1032.61,460.092 1038.78,461.759 1042.5,472.5C 1041.71,476.433 1039.71,479.433 1036.5,481.5 Z"/></g>
</svg>
