<svg width="600" height="400" xmlns="http://www.w3.org/2000/svg">
    <rect width="600" height="400" fill="#f3f4f6"/>
    <svg x="275" y="175" width="50" height="50" viewBox="0 0 24 24" fill="none" xmlns="http://www.w3.org/2000/svg">
        <path d="M4 16L8.586 11.414C8.96106 11.0389 9.46967 10.8284 10 10.8284C10.5303 10.8284 11.0389 11.0389 11.414 11.414L16 16M12 14L13.586 12.414C13.9611 12.0389 14.4697 11.8284 15 11.8284C15.5303 11.8284 16.0389 12.0389 16.414 12.414L20 16M14 8C14 8.53043 13.7893 9.03914 13.4142 9.41421C13.0391 9.78929 12.5304 10 12 10C11.4696 10 10.9609 9.78929 10.5858 9.41421C10.2107 9.03914 10 8.53043 10 8C10 7.46957 10.2107 6.96086 10.5858 6.58579C10.9609 6.21071 11.4696 6 12 6C12.5304 6 13.0391 6.21071 13.4142 6.58579C13.7893 6.96086 14 7.46957 14 8Z" stroke="#a566d1" stroke-width="2" stroke-linecap="round" stroke-linejoin="round"/>
    </svg>
    <text x="300" y="250" text-anchor="middle" font-family="Arial" font-size="14" fill="#666">No Image</text>
</svg>